<?xml version="1.0" encoding="UTF-8" standalone="no"?>
<!-- Created with Inkscape (http://www.inkscape.org/) -->

<svg
   version="1.1"
   id="svg2"
   width="158.74013"
   height="158.74013"
   viewBox="0 0 158.74013 158.74013"
   xmlns="http://www.w3.org/2000/svg"
   xmlns:svg="http://www.w3.org/2000/svg">
  <defs
     id="defs6" />
  <g
     id="g10"
     transform="matrix(1.3333333,0,0,-1.3333333,0,158.74013)">
    <g
       id="g12">
      <g
         id="g14">
        <path
           d="M -0.2324,118.8227 H 118.8227 V -0.2324 H -0.2324 Z"
           style="fill:#000000;fill-opacity:1;fill-rule:evenodd;stroke:#000000;stroke-width:0.5669;stroke-linecap:butt;stroke-linejoin:miter;stroke-miterlimit:22.9256;stroke-dasharray:none;stroke-opacity:1"
           id="path16" />
        <path
           d="m 18.6511,67.0433 h -5.1177 v -0.271 h 0.883 V 55.8859 h -0.883 v -0.271 h 4.398 v 0.271 h -0.8827 v 4.9946 h 1.6024 c 0.4686,0 0.9097,0.0536 1.3241,0.1608 0.4141,0.1071 0.7767,0.2795 1.0874,0.5164 0.3103,0.237 0.5584,0.5474 0.7435,0.9312 0.1854,0.3838 0.2781,0.8521 0.2781,1.4051 0,0.5534 -0.0927,1.0273 -0.2781,1.4225 -0.1851,0.3948 -0.4332,0.7194 -0.7435,0.9734 -0.3107,0.254 -0.6733,0.443 -1.0874,0.5672 -0.4144,0.1242 -0.8555,0.1862 -1.3241,0.1862 z m -1.0139,-5.8921 h -0.5885 v 5.6211 H 17.49 c 0.3816,0 0.6977,-0.0649 0.9482,-0.1944 0.2509,-0.1298 0.4527,-0.3161 0.6049,-0.559 0.1526,-0.2426 0.262,-0.5445 0.3272,-0.9057 0.0652,-0.3611 0.098,-0.7676 0.098,-1.2192 0,-0.8801 -0.1309,-1.5576 -0.3926,-2.0315 -0.2613,-0.474 -0.7409,-0.7113 -1.4385,-0.7113"
           style="fill:#ffffff;fill-opacity:1;fill-rule:nonzero;stroke:none"
           id="path18" />
        <path
           d="m 25.1067,61.3375 c 0,-0.745 0.1117,-1.4701 0.3351,-2.1756 0.2234,-0.7053 0.5559,-1.3374 0.9972,-1.8961 0.4414,-0.5587 0.989,-1.0074 1.643,-1.3462 0.6539,-0.3384 1.4116,-0.5079 2.2728,-0.5079 0.8609,0 1.6183,0.1695 2.2723,0.5079 0.6539,0.3388 1.2016,0.7875 1.6432,1.3462 0.4414,0.5587 0.7739,1.1908 0.9972,1.8961 0.2234,0.7055 0.3354,1.4306 0.3354,2.1756 0,0.7339 -0.112,1.4561 -0.3354,2.1674 -0.2233,0.7109 -0.5558,1.343 -0.9972,1.896 -0.4416,0.5534 -0.9893,0.999 -1.6432,1.3377 -0.654,0.3388 -1.4114,0.508 -2.2723,0.508 -0.8612,0 -1.6189,-0.1692 -2.2728,-0.508 -0.654,-0.3387 -1.2016,-0.7843 -1.643,-1.3377 -0.4413,-0.553 -0.7738,-1.1851 -0.9972,-1.896 -0.2234,-0.7113 -0.3351,-1.4335 -0.3351,-2.1674 z m 5.2481,5.6044 c 0.4575,0 0.8255,-0.0905 1.1032,-0.271 0.2781,-0.1806 0.4907,-0.4629 0.6378,-0.8465 0.1472,-0.3838 0.2452,-0.8747 0.2943,-1.4731 0.049,-0.5981 0.0737,-1.3207 0.0737,-2.1671 v -1.6931 c 0,-0.9369 -0.0247,-1.713 -0.0737,-2.3281 -0.0491,-0.6152 -0.1471,-1.1033 -0.2943,-1.4644 -0.1471,-0.3614 -0.3597,-0.6151 -0.6378,-0.762 -0.2777,-0.1468 -0.6457,-0.2202 -1.1032,-0.2202 -0.4581,0 -0.826,0.0734 -1.1038,0.2202 -0.2781,0.1469 -0.4904,0.4006 -0.6378,0.762 -0.1468,0.3611 -0.2452,0.8492 -0.2942,1.4644 -0.0488,0.6151 -0.0735,1.3912 -0.0735,2.3281 v 1.6931 c 0,0.8464 0.0247,1.569 0.0735,2.1671 0.049,0.5984 0.1474,1.0893 0.2942,1.4731 0.1474,0.3836 0.3597,0.6659 0.6378,0.8465 0.2778,0.1805 0.6457,0.271 1.1038,0.271"
           style="fill:#ffffff;fill-opacity:1;fill-rule:nonzero;stroke:none"
           id="path20" />
        <path
           d="m 47.0772,57.4943 v 1.4051 c 0,0.6321 -0.2041,1.1852 -0.6131,1.6594 -0.4085,0.474 -1.0378,0.762 -1.8879,0.8634 0.2943,0.0564 0.5993,0.1384 0.9156,0.2455 0.3158,0.1072 0.6021,0.2625 0.8581,0.4657 0.2562,0.203 0.4688,0.4655 0.6378,0.7872 0.1689,0.3218 0.2534,0.7197 0.2534,1.1937 0,0.9933 -0.3161,1.7297 -0.9485,2.2096 -0.6321,0.4796 -1.5095,0.7194 -2.632,0.7194 h -5.0683 v -0.271 H 39.475 V 55.8859 h -0.8827 v -0.271 h 4.3979 v 0.271 h -0.8827 v 5.4516 h 0.8337 c 0.2288,0 0.4334,-0.0309 0.6131,-0.093 0.1797,-0.0621 0.3323,-0.1749 0.4575,-0.3387 0.1256,-0.1636 0.2209,-0.3949 0.2863,-0.6942 0.0652,-0.2991 0.0981,-0.6857 0.0981,-1.1597 v -1.1344 c 0,-0.474 0.0519,-0.8748 0.1554,-1.2022 0.1034,-0.3271 0.248,-0.5896 0.4331,-0.7872 0.1854,-0.1975 0.4087,-0.3387 0.6704,-0.4232 0.2613,-0.0847 0.5505,-0.127 0.8663,-0.127 0.458,0 0.8994,0.1242 1.3243,0.3725 0.4252,0.2483 0.7631,0.6602 1.014,1.2359 0.0215,0.0451 0.0379,0.0848 0.0487,0.1185 0.0111,0.034 0.0165,0.0677 0.0165,0.1018 0,0.0674 -0.0273,0.1014 -0.0817,0.1014 -0.0544,0 -0.1199,-0.0734 -0.1964,-0.2202 -0.1851,-0.3161 -0.3597,-0.5389 -0.523,-0.6687 -0.1633,-0.1298 -0.3107,-0.1948 -0.4417,-0.1948 -0.2613,0 -0.4277,0.1214 -0.4986,0.364 -0.0706,0.2429 -0.1063,0.5448 -0.1063,0.906 z m -4.3648,4.1142 h -0.6049 v 5.1638 h 0.6049 c 0.207,0 0.4275,-0.0252 0.6622,-0.0759 0.2342,-0.051 0.4465,-0.1667 0.6372,-0.3473 0.1908,-0.1805 0.349,-0.4459 0.4743,-0.7957 0.1253,-0.3497 0.1879,-0.824 0.1879,-1.4221 0,-0.5644 -0.0626,-1.0131 -0.1879,-1.3462 -0.1253,-0.3328 -0.2835,-0.5867 -0.4743,-0.7619 -0.1907,-0.1749 -0.403,-0.2877 -0.6372,-0.3385 -0.2347,-0.0507 -0.4552,-0.0762 -0.6622,-0.0762"
           style="fill:#ffffff;fill-opacity:1;fill-rule:nonzero;stroke:none"
           id="path22" />
        <path
           d="m 56.5903,55.8859 v 10.8864 h 0.6701 c 0.5559,0 1.0327,-0.2763 1.4307,-0.8294 0.3977,-0.553 0.6786,-1.3036 0.8418,-2.2518 h 0.3269 l -0.2449,2.9968 c -0.0111,0.1015 -0.0465,0.1862 -0.1066,0.254 -0.0598,0.0677 -0.1772,0.1014 -0.3515,0.1014 h -7.831 c -0.1417,0 -0.2398,-0.0337 -0.2942,-0.1014 -0.0545,-0.0678 -0.0873,-0.1525 -0.0984,-0.254 L 50.688,63.6911 h 0.3271 c 0.1633,0.9482 0.4442,1.6988 0.8419,2.2518 0.398,0.5531 0.8748,0.8294 1.4304,0.8294 h 0.6704 V 55.8859 h -0.8827 v -0.271 h 4.3979 v 0.271 z"
           style="fill:#ffffff;fill-opacity:1;fill-rule:nonzero;stroke:none"
           id="path24" />
        <path
           d="m 68.7025,59.4581 c 0.1091,0 0.1635,0.1018 0.1635,0.305 v 3.691 c 0,0.203 -0.0544,0.3047 -0.1635,0.3047 -0.0981,0 -0.1525,-0.1017 -0.1636,-0.3047 -0.0544,-0.5644 -0.1933,-0.9907 -0.417,-1.2784 C 67.8986,61.888 67.5797,61.744 67.1655,61.744 h -0.9969 v 5.0283 h 1.2588 c 0.4249,0 0.7983,-0.0788 1.1197,-0.2369 0.3218,-0.1579 0.5939,-0.364 0.8175,-0.618 0.2234,-0.254 0.3923,-0.5388 0.5069,-0.8549 0.1142,-0.3161 0.1825,-0.6321 0.2043,-0.9482 0,-0.1468 0.0545,-0.2203 0.1633,-0.2203 0.1092,0 0.1636,0.0735 0.1636,0.2203 l -0.1307,2.4551 c -0.0108,0.1806 -0.0598,0.3047 -0.1471,0.3725 -0.0873,0.0677 -0.2126,0.1014 -0.3762,0.1014 h -7.0954 v -0.271 H 63.536 V 55.8859 h -0.8827 v -0.271 h 7.7658 c 0.1743,0 0.2914,0.0451 0.3515,0.1355 0.0598,0.0901 0.0899,0.2143 0.0899,0.3725 v 2.7765 c 0,0.1809 -0.0545,0.271 -0.1633,0.271 -0.1091,0 -0.1797,-0.0901 -0.2126,-0.271 -0.087,-0.4175 -0.18,-0.8099 -0.2778,-1.1767 -0.0984,-0.3668 -0.2455,-0.6857 -0.4416,-0.9564 -0.1962,-0.271 -0.455,-0.4855 -0.7764,-0.6434 -0.3218,-0.1582 -0.7441,-0.237 -1.2671,-0.237 h -1.5531 v 5.5871 h 0.9969 c 0.4142,0 0.7331,-0.1412 0.9564,-0.4232 0.2237,-0.2821 0.3626,-0.7112 0.417,-1.2867 0.0111,-0.2032 0.0655,-0.305 0.1636,-0.305"
           style="fill:#ffffff;fill-opacity:1;fill-rule:nonzero;stroke:none"
           id="path26" />
        <path
           d="m 74.128,55.8859 v -0.271 h 8.06 v 3.2845 c 0,0.1809 -0.0601,0.271 -0.18,0.271 -0.087,0 -0.1414,-0.0621 -0.1633,-0.1862 -0.0544,-0.4289 -0.1392,-0.8297 -0.2534,-1.2022 -0.1145,-0.3725 -0.267,-0.6971 -0.4578,-0.9734 -0.1908,-0.2767 -0.4195,-0.4938 -0.6868,-0.652 -0.2668,-0.1579 -0.5803,-0.237 -0.94,-0.237 h -1.8635 v 10.8527 h 0.8827 v 0.271 H 74.128 v -0.271 h 0.8827 V 55.8859 Z"
           style="fill:#ffffff;fill-opacity:1;fill-rule:nonzero;stroke:none"
           id="path28" />
        <path
           d="m 103.9864,67.1618 -0.428,-0.6602 c -0.2305,0.1579 -0.5377,0.3218 -0.9221,0.491 -0.3841,0.1692 -0.8725,0.254 -1.4652,0.254 -0.6038,0 -1.1333,-0.11 -1.5889,-0.3303 -0.4555,-0.2199 -0.8368,-0.5051 -1.1443,-0.8549 -0.3073,-0.3501 -0.5406,-0.7506 -0.6996,-1.2022 -0.1593,-0.4515 -0.2387,-0.9031 -0.2387,-1.3543 0,-0.8014 0.1868,-1.4732 0.5599,-2.0149 0.373,-0.5417 0.9822,-0.9369 1.8272,-1.1852 0.1976,-0.0564 0.4119,-0.1128 0.6423,-0.1692 0.2305,-0.0564 0.4581,-0.1103 0.6834,-0.161 0.2248,-0.0508 0.4306,-0.0987 0.6171,-0.1437 0.1866,-0.0454 0.3294,-0.0848 0.4281,-0.1188 0.5159,-0.1466 0.8643,-0.3668 1.0454,-0.6602 0.1811,-0.2934 0.2718,-0.6772 0.2718,-1.1514 0,-0.2257 -0.0465,-0.4655 -0.14,-0.7195 -0.0933,-0.2539 -0.2358,-0.4881 -0.428,-0.7027 -0.1922,-0.2143 -0.4391,-0.3948 -0.741,-0.5417 -0.3019,-0.1468 -0.6557,-0.2202 -1.0619,-0.2202 -0.5488,0 -1.0179,0.1017 -1.4076,0.3047 -0.3898,0.2032 -0.7215,0.4686 -0.9961,0.796 -0.2742,0.3274 -0.4992,0.6942 -0.675,1.1004 -0.1757,0.4065 -0.3183,0.8127 -0.4283,1.2192 -0.0436,0.1579 -0.093,0.2369 -0.148,0.2369 -0.0328,0 -0.0575,-0.017 -0.0739,-0.0507 -0.0168,-0.034 -0.0247,-0.1074 -0.0247,-0.2203 v -3.3185 c 0,-0.0677 0.0079,-0.1298 0.0247,-0.1862 0.0164,-0.0564 0.0521,-0.0845 0.1068,-0.0845 0.0768,0 0.165,0.0788 0.2636,0.237 l 0.5106,0.7957 c 0.1097,-0.1128 0.244,-0.2342 0.4031,-0.364 0.159,-0.1298 0.3512,-0.2511 0.5762,-0.364 0.2251,-0.1128 0.4884,-0.2089 0.7903,-0.288 0.3019,-0.0788 0.6614,-0.1184 1.0783,-0.1184 0.6478,0 1.213,0.1099 1.696,0.3302 0.4827,0.22 0.8833,0.5108 1.2016,0.8719 0.3183,0.3612 0.5573,0.7733 0.7163,1.2359 0.1593,0.4629 0.2387,0.9369 0.2387,1.4222 0,1.0386 -0.2497,1.8765 -0.7489,2.5143 -0.4995,0.6378 -1.2376,1.0525 -2.2147,1.2444 -0.2412,0.0454 -0.5378,0.1103 -0.889,0.1948 -0.3509,0.0847 -0.6585,0.172 -0.9218,0.2624 -0.3401,0.1242 -0.5845,0.3246 -0.7327,0.601 -0.1483,0.2766 -0.2223,0.6236 -0.2223,1.0414 0,0.2257 0.0383,0.4488 0.1154,0.6687 0.0765,0.22 0.1922,0.4147 0.3455,0.5842 0.154,0.1693 0.3459,0.3048 0.5763,0.4063 0.2305,0.1017 0.4992,0.1525 0.8068,0.1525 0.2522,0 0.513,-0.0369 0.7818,-0.1103 0.269,-0.0731 0.5297,-0.2058 0.7823,-0.3977 0.2523,-0.1919 0.4884,-0.4629 0.7078,-0.8127 0.2194,-0.3501 0.4006,-0.7957 0.5434,-1.3377 0.0329,-0.1579 0.0825,-0.2369 0.1483,-0.2369 0.0547,0 0.0847,0.0255 0.0904,0.0762 0.005,0.0507 0.008,0.11 0.008,0.1777 v 2.8443 c 0,0.1131 -0.0275,0.1695 -0.0825,0.1695 -0.0547,0 -0.1097,-0.0507 -0.1644,-0.1525"
           style="fill:#ffffff;fill-opacity:1;fill-rule:nonzero;stroke:none"
           id="path30" />
        <path
           d="m 91.8607,55.8907 c -0.0091,-0.0584 -0.0496,-0.095 -0.1341,-0.123 -0.0958,-0.0318 -0.8286,-0.1196 -0.8663,-0.1049 -0.0136,0.006 -0.0791,0.0111 -0.1454,0.0111 -0.108,0.0011 -0.1225,0.0034 -0.1565,0.0314 -0.0615,0.0488 -0.1068,0.1426 -0.1675,0.3498 -0.032,0.106 -0.3144,1.1274 -0.629,2.2706 -1.2169,4.4206 -1.0656,3.8574 -1.0536,3.9123 0.0144,0.0684 0.0629,0.1061 0.1788,0.1426 l 0.106,0.034 -0.0224,0.1426 -0.0224,0.144 0.1123,0.1486 0.112,0.1499 -0.0165,0.0791 c -0.0275,0.1415 -0.5292,2.1645 -0.5437,2.194 -0.0178,0.0366 -0.3186,-0.5023 -0.5859,-1.0482 -1.2461,-2.541 -2.0191,-5.3907 -2.406,-8.8787 -0.0511,-0.457 -0.0553,-0.4802 -0.0899,-0.5423 -0.0178,-0.0317 -0.0558,-0.0694 -0.0915,-0.0915 -0.0542,-0.0329 -0.0695,-0.0366 -0.1645,-0.0352 -0.1337,0 -0.2395,0.0329 -0.3812,0.1168 -0.3277,0.195 -1.0052,0.618 -1.0449,0.6534 -0.102,0.0901 -0.1275,0.2242 -0.0762,0.3985 0.0139,0.0477 0.0768,0.3461 0.1409,0.6642 0.3778,1.8709 0.6352,2.9446 0.9581,3.9852 0.7143,2.306 1.6631,4.1879 3.0917,6.1257 0.1948,0.2645 0.2302,0.3192 0.2211,0.3461 -0.0056,0.017 -0.0269,0.1363 -0.0482,0.2645 -0.068,0.4252 -0.0635,0.7934 0.0238,1.6551 0.0244,0.2413 0.0468,0.4473 0.0497,0.4595 0.0028,0.0108 0.0209,0.0255 0.0411,0.0329 0.0504,0.0159 0.2401,0.0437 0.25,0.0352 0.0042,-0.0037 0.0065,-0.0548 0.0042,-0.1146 -0.0071,-0.2718 0.0182,-0.6704 0.0638,-0.9907 0.0626,-0.4351 0.1607,-0.9153 0.1933,-0.9433 0.0071,-0.0063 0.1041,-0.0292 0.2152,-0.0514 0.2701,-0.0535 0.3719,-0.0839 0.4413,-0.1315 0.1151,-0.0768 0.1616,-0.1998 0.1185,-0.3095 -0.0102,-0.0292 -0.0836,-0.15 -0.161,-0.2682 -0.2202,-0.3401 -0.2798,-0.4399 -0.2775,-0.4643 0.0011,-0.0133 0.0876,-0.2866 0.193,-0.6069 0.1741,-0.5289 0.4743,-1.5188 1.0012,-3.2956 0.7263,-2.4497 1.1234,-3.977 1.4205,-5.46 0.0462,-0.2316 0.1576,-0.8397 0.1553,-0.8448 -0.0011,-0.0011 -0.0045,-0.0207 -0.0076,-0.0425 z"
           style="fill:#ffffff;fill-opacity:1;fill-rule:nonzero;stroke:none"
           id="path32" />
        <path
           d="m 92.5722,68.3289 h 0.3279 c 0.2651,0 0.4813,-0.2163 0.4813,-0.4811 v -1.0499 c 0,-0.1222 -0.3716,-1.321 -0.3716,-2.363 0,-0.1324 -0.1083,-0.2404 -0.2406,-0.2404 h -3e-4 c -0.1321,0 -0.2404,0.108 -0.2404,0.2404 0,1.2053 -0.4224,2.2578 -0.4226,2.3077 l -0.0148,1.1052 c -0.0034,0.2648 0.2163,0.4811 0.4811,0.4811"
           style="fill:#ffffff;fill-opacity:1;fill-rule:evenodd;stroke:none"
           id="path34" />
        <path
           d="m 39.0801,49.4379 v -2.0486 h 1.1764 c 0.394,0 0.6854,0.0845 0.8751,0.2534 0.1896,0.1673 0.2837,0.4258 0.2837,0.7736 0,0.349 -0.0941,0.6061 -0.2837,0.7722 -0.1897,0.1664 -0.4811,0.2494 -0.8751,0.2494 z m 0,2.3018 v -1.6881 h 1.086 c 0.358,0 0.6245,0.0692 0.8008,0.2087 0.1746,0.138 0.2625,0.3503 0.2625,0.6355 0,0.2823 -0.0879,0.4935 -0.2625,0.6341 -0.1763,0.1395 -0.4428,0.2098 -0.8008,0.2098 z m -0.7364,0.6213 h 1.8768 c 0.559,0 0.989,-0.1202 1.2918,-0.3591 0.3021,-0.2407 0.4535,-0.582 0.4535,-1.0245 0,-0.3413 -0.0768,-0.6137 -0.2319,-0.8169 -0.155,-0.2021 -0.3829,-0.3288 -0.6831,-0.3787 0.3608,-0.0791 0.6398,-0.2467 0.8393,-0.4998 0.1996,-0.2534 0.2988,-0.5692 0.2988,-0.949 0,-0.4986 -0.1647,-0.8847 -0.4935,-1.1571 -0.3283,-0.2724 -0.7957,-0.4079 -1.4029,-0.4079 h -1.9488 z"
           style="fill:#ffffff;fill-opacity:1;fill-rule:nonzero;stroke:none"
           id="path36" />
        <path
           d="m 45.2602,51.6155 -0.9955,-2.7836 h 1.9944 z m -0.4141,0.7455 h 0.8319 l 2.0662,-5.593 h -0.7625 l -0.4946,1.4346 H 44.0442 L 43.5495,46.768 h -0.773 z"
           style="fill:#ffffff;fill-opacity:1;fill-rule:nonzero;stroke:none"
           id="path38" />
        <path
           d="m 51.1055,49.3894 c 0.1574,-0.0549 0.3113,-0.1726 0.4598,-0.3517 0.1488,-0.1803 0.2977,-0.4272 0.4473,-0.7416 l 0.7438,-1.5281 h -0.7871 l -0.6925,1.4346 c -0.1798,0.3747 -0.3535,0.6228 -0.5219,0.7455 -0.1675,0.1216 -0.3969,0.1828 -0.688,0.1828 H 49.2687 V 46.768 h -0.7364 v 5.593 h 1.6585 c 0.6199,0 1.082,-0.1344 1.387,-0.4014 0.305,-0.2673 0.4575,-0.6701 0.4575,-1.2098 0,-0.3529 -0.0794,-0.6443 -0.2384,-0.877 C 51.6385,49.64 51.408,49.4787 51.1055,49.3894 Z m -1.8368,2.3503 v -1.9871 h 0.9221 c 0.3532,0 0.6199,0.0842 0.8005,0.2531 0.1797,0.1687 0.2704,0.4167 0.2704,0.7441 0,0.3274 -0.0907,0.5743 -0.2704,0.7404 -0.1806,0.1664 -0.4473,0.2495 -0.8005,0.2495 z"
           style="fill:#ffffff;fill-opacity:1;fill-rule:nonzero;stroke:none"
           id="path40" />
        <path
           d="m 54.436,49.4379 v -2.0486 h 1.1763 c 0.3941,0 0.6855,0.0845 0.8751,0.2534 0.1896,0.1673 0.2837,0.4258 0.2837,0.7736 0,0.349 -0.0941,0.6061 -0.2837,0.7722 -0.1896,0.1664 -0.481,0.2494 -0.8751,0.2494 z m 0,2.3018 v -1.6881 h 1.0859 c 0.358,0 0.6245,0.0692 0.8005,0.2087 0.1749,0.138 0.2628,0.3503 0.2628,0.6355 0,0.2823 -0.0879,0.4935 -0.2628,0.6341 -0.176,0.1395 -0.4425,0.2098 -0.8005,0.2098 z m -0.7365,0.6213 h 1.8768 c 0.559,0 0.9891,-0.1202 1.2915,-0.3591 0.3025,-0.2407 0.4538,-0.582 0.4538,-1.0245 0,-0.3413 -0.0771,-0.6137 -0.2318,-0.8169 -0.1551,-0.2021 -0.3833,-0.3288 -0.6832,-0.3787 0.3609,-0.0791 0.6395,-0.2467 0.8391,-0.4998 0.1998,-0.2534 0.299,-0.5692 0.299,-0.949 0,-0.4986 -0.165,-0.8847 -0.4935,-1.1571 C 56.723,46.9035 56.2555,46.768 55.6481,46.768 h -1.9486 z"
           style="fill:#ffffff;fill-opacity:1;fill-rule:nonzero;stroke:none"
           id="path42" />
        <path
           d="m 58.801,52.361 h 3.4288 v -0.6367 h -2.6923 v -1.6574 h 2.5806 v -0.6366 h -2.5806 v -2.0257 h 2.7589 V 46.768 H 58.801 Z"
           style="fill:#ffffff;fill-opacity:1;fill-rule:nonzero;stroke:none"
           id="path44" />
        <path
           d="m 65.3148,51.6155 -0.9956,-2.7836 h 1.9945 z m -0.4142,0.7455 h 0.832 l 2.0662,-5.593 h -0.7625 l -0.4947,1.4346 H 64.0987 L 63.6041,46.768 h -0.773 z"
           style="fill:#ffffff;fill-opacity:1;fill-rule:nonzero;stroke:none"
           id="path46" />
        <path
           d="m 71.1601,49.3894 c 0.1573,-0.0549 0.3112,-0.1726 0.4598,-0.3517 0.1488,-0.1803 0.2976,-0.4272 0.4473,-0.7416 L 72.811,46.768 h -0.7872 l -0.6925,1.4346 c -0.1797,0.3747 -0.3535,0.6228 -0.5219,0.7455 -0.1672,0.1216 -0.3968,0.1828 -0.6879,0.1828 H 69.3232 V 46.768 h -0.7364 v 5.593 h 1.6586 c 0.6199,0 1.0819,-0.1344 1.3869,-0.4014 0.3051,-0.2673 0.4576,-0.6701 0.4576,-1.2098 0,-0.3529 -0.0794,-0.6443 -0.2384,-0.877 C 71.693,49.64 71.4626,49.4787 71.1601,49.3894 Z m -1.8369,2.3503 v -1.9871 h 0.9222 c 0.3532,0 0.6199,0.0842 0.8005,0.2531 0.1797,0.1687 0.2704,0.4167 0.2704,0.7441 0,0.3274 -0.0907,0.5743 -0.2704,0.7404 -0.1806,0.1664 -0.4473,0.2495 -0.8005,0.2495 z"
           style="fill:#ffffff;fill-opacity:1;fill-rule:nonzero;stroke:none"
           id="path48" />
        <path
           d="m 73.7541,52.361 h 0.7364 v -5.593 h -0.7364 z"
           style="fill:#ffffff;fill-opacity:1;fill-rule:nonzero;stroke:none"
           id="path50" />
        <path
           d="m 77.7628,51.6155 -0.9955,-2.7836 h 1.9942 z m -0.4141,0.7455 h 0.8317 l 2.0662,-5.593 H 79.484 l -0.4943,1.4346 H 76.5465 L 76.0521,46.768 h -0.7733 z"
           style="fill:#ffffff;fill-opacity:1;fill-rule:nonzero;stroke:none"
           id="path52" />
        <path
           d="M 110.9452,51.0015 V 70.95 H 7.645 V 51.0015 H 28.6591 V 50.3028 H 7.037 V 71.6491 H 111.5532 V 50.3028 H 90.6627 v 0.6987 z"
           style="fill:#ffffff;fill-opacity:1;fill-rule:evenodd;stroke:none"
           id="path54" />
        <path
           d="m 32.1165,50.1148 c -0.8532,0.0868 -0.9036,-1.1265 -0.098,-1.2078 0.3415,-0.0343 0.68,0.1834 0.6973,0.5377 0.0184,0.3833 -0.2945,0.6392 -0.5993,0.6701 z m -2.4043,0.8955 c -0.322,0.0604 -0.2651,-0.2747 -0.1352,-0.3206 0.1822,-0.0649 0.2514,0.1573 0.1352,0.3206 z m 0.2106,0.2166 c 0.1366,-0.2257 0.034,-0.4244 0.5326,-0.5789 1.1688,-0.3628 2.1722,-0.0334 2.4775,-0.8078 0.4235,-1.0727 -1.029,-1.647 -1.635,-0.7943 -0.0661,0.0932 -0.146,0.2577 -0.1551,0.4266 -0.0147,0.2696 0.0771,0.3402 0.1018,0.5145 -0.2429,0.142 -1.1245,0.3308 -1.453,0.4104 l -3.8155,0.8924 c -0.1556,0.0337 -0.6423,0.1242 -0.7509,0.1803 0.3116,0.3532 1.8771,0.1088 2.3199,0.0555 0.7821,-0.0944 1.5939,-0.176 2.3777,-0.2987 z m 1.5199,0.917 c -0.0853,-0.3833 0.2296,-0.6605 0.5296,-0.6897 0.3401,-0.0334 0.6596,0.1984 0.7253,0.4864 0.1849,0.8065 -1.0709,1.0279 -1.2549,0.2033 z m -0.2012,-0.5596 c -0.025,0.1406 -0.095,0.2245 -0.1018,0.4275 -0.0144,0.4342 0.309,0.7707 0.6815,0.8833 1.0063,0.3038 1.5894,-0.9298 0.8487,-1.5183 -0.3076,-0.2443 -1.3655,-0.231 -2.0588,-0.4017 -0.1253,-0.0308 -0.2997,-0.1017 -0.406,-0.1091 -0.0856,0.091 -0.1425,0.1865 -0.1664,0.3671 0.3141,0.0998 0.9516,0.2055 1.2028,0.3512 z m -1.6461,-1.1412 c -0.7336,-0.1049 -1.4953,-0.3181 -2.2241,-0.4232 -0.5907,-0.0851 -1.6574,-0.3433 -2.1585,-0.0618 0.1046,0.0867 2.2331,0.6749 2.6886,0.7982 0.2271,0.0615 0.3512,3e-4 0.5726,-0.051 0.2801,-0.0652 0.8561,-0.2004 1.1214,-0.2622"
           style="fill:#ffffff;fill-opacity:1;fill-rule:evenodd;stroke:none"
           id="path56" />
        <path
           d="m 86.474,50.1148 c 0.8532,0.0868 0.9037,-1.1265 0.0981,-1.2078 -0.3416,-0.0343 -0.6801,0.1834 -0.6974,0.5377 -0.0184,0.3833 0.2946,0.6392 0.5993,0.6701 z m 2.4043,0.8955 c 0.322,0.0604 0.2651,-0.2747 0.1352,-0.3206 -0.1822,-0.0649 -0.2514,0.1573 -0.1352,0.3206 z m -0.2106,0.2166 c -0.1366,-0.2257 -0.034,-0.4244 -0.5326,-0.5789 -1.1687,-0.3628 -2.1722,-0.0334 -2.4775,-0.8078 -0.4235,-1.0727 1.029,-1.647 1.635,-0.7943 0.0661,0.0932 0.146,0.2577 0.1551,0.4266 0.0147,0.2696 -0.0771,0.3402 -0.1018,0.5145 0.243,0.142 1.1245,0.3308 1.4531,0.4104 l 3.8154,0.8924 c 0.1556,0.0337 0.6423,0.1242 0.7509,0.1803 -0.3115,0.3532 -1.8771,0.1088 -2.3199,0.0555 -0.7821,-0.0944 -1.5939,-0.176 -2.3777,-0.2987 z m -1.5199,0.917 c 0.0853,-0.3833 -0.2296,-0.6605 -0.5295,-0.6897 -0.3402,-0.0334 -0.6597,0.1984 -0.7254,0.4864 -0.1848,0.8065 1.0709,1.0279 1.2549,0.2033 z m 0.2012,-0.5596 c 0.025,0.1406 0.095,0.2245 0.1018,0.4275 0.0145,0.4342 -0.309,0.7707 -0.6814,0.8833 -1.0063,0.3038 -1.5894,-0.9298 -0.8487,-1.5183 0.3075,-0.2443 1.3654,-0.231 2.0588,-0.4017 0.1253,-0.0308 0.2996,-0.1017 0.4059,-0.1091 0.0856,0.091 0.1426,0.1865 0.1664,0.3671 -0.3141,0.0998 -0.9516,0.2055 -1.2028,0.3512 z m 1.6464,-1.1412 c 0.7333,-0.1049 1.495,-0.3181 2.2238,-0.4232 0.5907,-0.0851 1.6574,-0.3433 2.1586,-0.0618 -0.1046,0.0867 -2.2332,0.6749 -2.6887,0.7982 -0.2271,0.0615 -0.3512,3e-4 -0.5726,-0.051 -0.2801,-0.0652 -0.8561,-0.2004 -1.1211,-0.2622"
           style="fill:#ffffff;fill-opacity:1;fill-rule:evenodd;stroke:none"
           id="path58" />
      </g>
      <g
         id="g60">
        <path
           d="M -0.2324,118.8227 H 118.8227 V -0.2324 H -0.2324 Z"
           style="fill:#000000;fill-opacity:1;fill-rule:evenodd;stroke:#000000;stroke-width:0.5669;stroke-linecap:butt;stroke-linejoin:miter;stroke-miterlimit:22.9256;stroke-dasharray:none;stroke-opacity:1"
           id="path62" />
        <path
           d="m 18.6511,67.0433 h -5.1177 v -0.271 h 0.883 V 55.8859 h -0.883 v -0.271 h 4.398 v 0.271 h -0.8827 v 4.9946 h 1.6024 c 0.4686,0 0.9097,0.0536 1.3241,0.1608 0.4141,0.1071 0.7767,0.2795 1.0874,0.5164 0.3103,0.237 0.5584,0.5474 0.7435,0.9312 0.1854,0.3838 0.2781,0.8521 0.2781,1.4051 0,0.5534 -0.0927,1.0273 -0.2781,1.4225 -0.1851,0.3948 -0.4332,0.7194 -0.7435,0.9734 -0.3107,0.254 -0.6733,0.443 -1.0874,0.5672 -0.4144,0.1242 -0.8555,0.1862 -1.3241,0.1862 z m -1.0139,-5.8921 h -0.5885 v 5.6211 H 17.49 c 0.3816,0 0.6977,-0.0649 0.9482,-0.1944 0.2509,-0.1298 0.4527,-0.3161 0.6049,-0.559 0.1526,-0.2426 0.262,-0.5445 0.3272,-0.9057 0.0652,-0.3611 0.098,-0.7676 0.098,-1.2192 0,-0.8801 -0.1309,-1.5576 -0.3926,-2.0315 -0.2613,-0.474 -0.7409,-0.7113 -1.4385,-0.7113"
           style="fill:#ffffff;fill-opacity:1;fill-rule:nonzero;stroke:none"
           id="path64" />
        <path
           d="m 25.1067,61.3375 c 0,-0.745 0.1117,-1.4701 0.3351,-2.1756 0.2234,-0.7053 0.5559,-1.3374 0.9972,-1.8961 0.4414,-0.5587 0.989,-1.0074 1.643,-1.3462 0.6539,-0.3384 1.4116,-0.5079 2.2728,-0.5079 0.8609,0 1.6183,0.1695 2.2723,0.5079 0.6539,0.3388 1.2016,0.7875 1.6432,1.3462 0.4414,0.5587 0.7739,1.1908 0.9972,1.8961 0.2234,0.7055 0.3354,1.4306 0.3354,2.1756 0,0.7339 -0.112,1.4561 -0.3354,2.1674 -0.2233,0.7109 -0.5558,1.343 -0.9972,1.896 -0.4416,0.5534 -0.9893,0.999 -1.6432,1.3377 -0.654,0.3388 -1.4114,0.508 -2.2723,0.508 -0.8612,0 -1.6189,-0.1692 -2.2728,-0.508 -0.654,-0.3387 -1.2016,-0.7843 -1.643,-1.3377 -0.4413,-0.553 -0.7738,-1.1851 -0.9972,-1.896 -0.2234,-0.7113 -0.3351,-1.4335 -0.3351,-2.1674 z m 5.2481,5.6044 c 0.4575,0 0.8255,-0.0905 1.1032,-0.271 0.2781,-0.1806 0.4907,-0.4629 0.6378,-0.8465 0.1472,-0.3838 0.2452,-0.8747 0.2943,-1.4731 0.049,-0.5981 0.0737,-1.3207 0.0737,-2.1671 v -1.6931 c 0,-0.9369 -0.0247,-1.713 -0.0737,-2.3281 -0.0491,-0.6152 -0.1471,-1.1033 -0.2943,-1.4644 -0.1471,-0.3614 -0.3597,-0.6151 -0.6378,-0.762 -0.2777,-0.1468 -0.6457,-0.2202 -1.1032,-0.2202 -0.4581,0 -0.826,0.0734 -1.1038,0.2202 -0.2781,0.1469 -0.4904,0.4006 -0.6378,0.762 -0.1468,0.3611 -0.2452,0.8492 -0.2942,1.4644 -0.0488,0.6151 -0.0735,1.3912 -0.0735,2.3281 v 1.6931 c 0,0.8464 0.0247,1.569 0.0735,2.1671 0.049,0.5984 0.1474,1.0893 0.2942,1.4731 0.1474,0.3836 0.3597,0.6659 0.6378,0.8465 0.2778,0.1805 0.6457,0.271 1.1038,0.271"
           style="fill:#ffffff;fill-opacity:1;fill-rule:nonzero;stroke:none"
           id="path66" />
        <path
           d="m 47.0772,57.4943 v 1.4051 c 0,0.6321 -0.2041,1.1852 -0.6131,1.6594 -0.4085,0.474 -1.0378,0.762 -1.8879,0.8634 0.2943,0.0564 0.5993,0.1384 0.9156,0.2455 0.3158,0.1072 0.6021,0.2625 0.8581,0.4657 0.2562,0.203 0.4688,0.4655 0.6378,0.7872 0.1689,0.3218 0.2534,0.7197 0.2534,1.1937 0,0.9933 -0.3161,1.7297 -0.9485,2.2096 -0.6321,0.4796 -1.5095,0.7194 -2.632,0.7194 h -5.0683 v -0.271 H 39.475 V 55.8859 h -0.8827 v -0.271 h 4.3979 v 0.271 h -0.8827 v 5.4516 h 0.8337 c 0.2288,0 0.4334,-0.0309 0.6131,-0.093 0.1797,-0.0621 0.3323,-0.1749 0.4575,-0.3387 0.1256,-0.1636 0.2209,-0.3949 0.2863,-0.6942 0.0652,-0.2991 0.0981,-0.6857 0.0981,-1.1597 v -1.1344 c 0,-0.474 0.0519,-0.8748 0.1554,-1.2022 0.1034,-0.3271 0.248,-0.5896 0.4331,-0.7872 0.1854,-0.1975 0.4087,-0.3387 0.6704,-0.4232 0.2613,-0.0847 0.5505,-0.127 0.8663,-0.127 0.458,0 0.8994,0.1242 1.3243,0.3725 0.4252,0.2483 0.7631,0.6602 1.014,1.2359 0.0215,0.0451 0.0379,0.0848 0.0487,0.1185 0.0111,0.034 0.0165,0.0677 0.0165,0.1018 0,0.0674 -0.0273,0.1014 -0.0817,0.1014 -0.0544,0 -0.1199,-0.0734 -0.1964,-0.2202 -0.1851,-0.3161 -0.3597,-0.5389 -0.523,-0.6687 -0.1633,-0.1298 -0.3107,-0.1948 -0.4417,-0.1948 -0.2613,0 -0.4277,0.1214 -0.4986,0.364 -0.0706,0.2429 -0.1063,0.5448 -0.1063,0.906 z m -4.3648,4.1142 h -0.6049 v 5.1638 h 0.6049 c 0.207,0 0.4275,-0.0252 0.6622,-0.0759 0.2342,-0.051 0.4465,-0.1667 0.6372,-0.3473 0.1908,-0.1805 0.349,-0.4459 0.4743,-0.7957 0.1253,-0.3497 0.1879,-0.824 0.1879,-1.4221 0,-0.5644 -0.0626,-1.0131 -0.1879,-1.3462 -0.1253,-0.3328 -0.2835,-0.5867 -0.4743,-0.7619 -0.1907,-0.1749 -0.403,-0.2877 -0.6372,-0.3385 -0.2347,-0.0507 -0.4552,-0.0762 -0.6622,-0.0762"
           style="fill:#ffffff;fill-opacity:1;fill-rule:nonzero;stroke:none"
           id="path68" />
        <path
           d="m 56.5903,55.8859 v 10.8864 h 0.6701 c 0.5559,0 1.0327,-0.2763 1.4307,-0.8294 0.3977,-0.553 0.6786,-1.3036 0.8418,-2.2518 h 0.3269 l -0.2449,2.9968 c -0.0111,0.1015 -0.0465,0.1862 -0.1066,0.254 -0.0598,0.0677 -0.1772,0.1014 -0.3515,0.1014 h -7.831 c -0.1417,0 -0.2398,-0.0337 -0.2942,-0.1014 -0.0545,-0.0678 -0.0873,-0.1525 -0.0984,-0.254 L 50.688,63.6911 h 0.3271 c 0.1633,0.9482 0.4442,1.6988 0.8419,2.2518 0.398,0.5531 0.8748,0.8294 1.4304,0.8294 h 0.6704 V 55.8859 h -0.8827 v -0.271 h 4.3979 v 0.271 z"
           style="fill:#ffffff;fill-opacity:1;fill-rule:nonzero;stroke:none"
           id="path70" />
        <path
           d="m 68.7025,59.4581 c 0.1091,0 0.1635,0.1018 0.1635,0.305 v 3.691 c 0,0.203 -0.0544,0.3047 -0.1635,0.3047 -0.0981,0 -0.1525,-0.1017 -0.1636,-0.3047 -0.0544,-0.5644 -0.1933,-0.9907 -0.417,-1.2784 C 67.8986,61.888 67.5797,61.744 67.1655,61.744 h -0.9969 v 5.0283 h 1.2588 c 0.4249,0 0.7983,-0.0788 1.1197,-0.2369 0.3218,-0.1579 0.5939,-0.364 0.8175,-0.618 0.2234,-0.254 0.3923,-0.5388 0.5069,-0.8549 0.1142,-0.3161 0.1825,-0.6321 0.2043,-0.9482 0,-0.1468 0.0545,-0.2203 0.1633,-0.2203 0.1092,0 0.1636,0.0735 0.1636,0.2203 l -0.1307,2.4551 c -0.0108,0.1806 -0.0598,0.3047 -0.1471,0.3725 -0.0873,0.0677 -0.2126,0.1014 -0.3762,0.1014 h -7.0954 v -0.271 H 63.536 V 55.8859 h -0.8827 v -0.271 h 7.7658 c 0.1743,0 0.2914,0.0451 0.3515,0.1355 0.0598,0.0901 0.0899,0.2143 0.0899,0.3725 v 2.7765 c 0,0.1809 -0.0545,0.271 -0.1633,0.271 -0.1091,0 -0.1797,-0.0901 -0.2126,-0.271 -0.087,-0.4175 -0.18,-0.8099 -0.2778,-1.1767 -0.0984,-0.3668 -0.2455,-0.6857 -0.4416,-0.9564 -0.1962,-0.271 -0.455,-0.4855 -0.7764,-0.6434 -0.3218,-0.1582 -0.7441,-0.237 -1.2671,-0.237 h -1.5531 v 5.5871 h 0.9969 c 0.4142,0 0.7331,-0.1412 0.9564,-0.4232 0.2237,-0.2821 0.3626,-0.7112 0.417,-1.2867 0.0111,-0.2032 0.0655,-0.305 0.1636,-0.305"
           style="fill:#ffffff;fill-opacity:1;fill-rule:nonzero;stroke:none"
           id="path72" />
        <path
           d="m 74.128,55.8859 v -0.271 h 8.06 v 3.2845 c 0,0.1809 -0.0601,0.271 -0.18,0.271 -0.087,0 -0.1414,-0.0621 -0.1633,-0.1862 -0.0544,-0.4289 -0.1392,-0.8297 -0.2534,-1.2022 -0.1145,-0.3725 -0.267,-0.6971 -0.4578,-0.9734 -0.1908,-0.2767 -0.4195,-0.4938 -0.6868,-0.652 -0.2668,-0.1579 -0.5803,-0.237 -0.94,-0.237 h -1.8635 v 10.8527 h 0.8827 v 0.271 H 74.128 v -0.271 h 0.8827 V 55.8859 Z"
           style="fill:#ffffff;fill-opacity:1;fill-rule:nonzero;stroke:none"
           id="path74" />
        <path
           d="m 103.9864,67.1618 -0.428,-0.6602 c -0.2305,0.1579 -0.5377,0.3218 -0.9221,0.491 -0.3841,0.1692 -0.8725,0.254 -1.4652,0.254 -0.6038,0 -1.1333,-0.11 -1.5889,-0.3303 -0.4555,-0.2199 -0.8368,-0.5051 -1.1443,-0.8549 -0.3073,-0.3501 -0.5406,-0.7506 -0.6996,-1.2022 -0.1593,-0.4515 -0.2387,-0.9031 -0.2387,-1.3543 0,-0.8014 0.1868,-1.4732 0.5599,-2.0149 0.373,-0.5417 0.9822,-0.9369 1.8272,-1.1852 0.1976,-0.0564 0.4119,-0.1128 0.6423,-0.1692 0.2305,-0.0564 0.4581,-0.1103 0.6834,-0.161 0.2248,-0.0508 0.4306,-0.0987 0.6171,-0.1437 0.1866,-0.0454 0.3294,-0.0848 0.4281,-0.1188 0.5159,-0.1466 0.8643,-0.3668 1.0454,-0.6602 0.1811,-0.2934 0.2718,-0.6772 0.2718,-1.1514 0,-0.2257 -0.0465,-0.4655 -0.14,-0.7195 -0.0933,-0.2539 -0.2358,-0.4881 -0.428,-0.7027 -0.1922,-0.2143 -0.4391,-0.3948 -0.741,-0.5417 -0.3019,-0.1468 -0.6557,-0.2202 -1.0619,-0.2202 -0.5488,0 -1.0179,0.1017 -1.4076,0.3047 -0.3898,0.2032 -0.7215,0.4686 -0.9961,0.796 -0.2742,0.3274 -0.4992,0.6942 -0.675,1.1004 -0.1757,0.4065 -0.3183,0.8127 -0.4283,1.2192 -0.0436,0.1579 -0.093,0.2369 -0.148,0.2369 -0.0328,0 -0.0575,-0.017 -0.0739,-0.0507 -0.0168,-0.034 -0.0247,-0.1074 -0.0247,-0.2203 v -3.3185 c 0,-0.0677 0.0079,-0.1298 0.0247,-0.1862 0.0164,-0.0564 0.0521,-0.0845 0.1068,-0.0845 0.0768,0 0.165,0.0788 0.2636,0.237 l 0.5106,0.7957 c 0.1097,-0.1128 0.244,-0.2342 0.4031,-0.364 0.159,-0.1298 0.3512,-0.2511 0.5762,-0.364 0.2251,-0.1128 0.4884,-0.2089 0.7903,-0.288 0.3019,-0.0788 0.6614,-0.1184 1.0783,-0.1184 0.6478,0 1.213,0.1099 1.696,0.3302 0.4827,0.22 0.8833,0.5108 1.2016,0.8719 0.3183,0.3612 0.5573,0.7733 0.7163,1.2359 0.1593,0.4629 0.2387,0.9369 0.2387,1.4222 0,1.0386 -0.2497,1.8765 -0.7489,2.5143 -0.4995,0.6378 -1.2376,1.0525 -2.2147,1.2444 -0.2412,0.0454 -0.5378,0.1103 -0.889,0.1948 -0.3509,0.0847 -0.6585,0.172 -0.9218,0.2624 -0.3401,0.1242 -0.5845,0.3246 -0.7327,0.601 -0.1483,0.2766 -0.2223,0.6236 -0.2223,1.0414 0,0.2257 0.0383,0.4488 0.1154,0.6687 0.0765,0.22 0.1922,0.4147 0.3455,0.5842 0.154,0.1693 0.3459,0.3048 0.5763,0.4063 0.2305,0.1017 0.4992,0.1525 0.8068,0.1525 0.2522,0 0.513,-0.0369 0.7818,-0.1103 0.269,-0.0731 0.5297,-0.2058 0.7823,-0.3977 0.2523,-0.1919 0.4884,-0.4629 0.7078,-0.8127 0.2194,-0.3501 0.4006,-0.7957 0.5434,-1.3377 0.0329,-0.1579 0.0825,-0.2369 0.1483,-0.2369 0.0547,0 0.0847,0.0255 0.0904,0.0762 0.005,0.0507 0.008,0.11 0.008,0.1777 v 2.8443 c 0,0.1131 -0.0275,0.1695 -0.0825,0.1695 -0.0547,0 -0.1097,-0.0507 -0.1644,-0.1525"
           style="fill:#ffffff;fill-opacity:1;fill-rule:nonzero;stroke:none"
           id="path76" />
        <path
           d="m 91.8607,55.8907 c -0.0091,-0.0584 -0.0496,-0.095 -0.1341,-0.123 -0.0958,-0.0318 -0.8286,-0.1196 -0.8663,-0.1049 -0.0136,0.006 -0.0791,0.0111 -0.1454,0.0111 -0.108,0.0011 -0.1225,0.0034 -0.1565,0.0314 -0.0615,0.0488 -0.1068,0.1426 -0.1675,0.3498 -0.032,0.106 -0.3144,1.1274 -0.629,2.2706 -1.2169,4.4206 -1.0656,3.8574 -1.0536,3.9123 0.0144,0.0684 0.0629,0.1061 0.1788,0.1426 l 0.106,0.034 -0.0224,0.1426 -0.0224,0.144 0.1123,0.1486 0.112,0.1499 -0.0165,0.0791 c -0.0275,0.1415 -0.5292,2.1645 -0.5437,2.194 -0.0178,0.0366 -0.3186,-0.5023 -0.5859,-1.0482 -1.2461,-2.541 -2.0191,-5.3907 -2.406,-8.8787 -0.0511,-0.457 -0.0553,-0.4802 -0.0899,-0.5423 -0.0178,-0.0317 -0.0558,-0.0694 -0.0915,-0.0915 -0.0542,-0.0329 -0.0695,-0.0366 -0.1645,-0.0352 -0.1337,0 -0.2395,0.0329 -0.3812,0.1168 -0.3277,0.195 -1.0052,0.618 -1.0449,0.6534 -0.102,0.0901 -0.1275,0.2242 -0.0762,0.3985 0.0139,0.0477 0.0768,0.3461 0.1409,0.6642 0.3778,1.8709 0.6352,2.9446 0.9581,3.9852 0.7143,2.306 1.6631,4.1879 3.0917,6.1257 0.1948,0.2645 0.2302,0.3192 0.2211,0.3461 -0.0056,0.017 -0.0269,0.1363 -0.0482,0.2645 -0.068,0.4252 -0.0635,0.7934 0.0238,1.6551 0.0244,0.2413 0.0468,0.4473 0.0497,0.4595 0.0028,0.0108 0.0209,0.0255 0.0411,0.0329 0.0504,0.0159 0.2401,0.0437 0.25,0.0352 0.0042,-0.0037 0.0065,-0.0548 0.0042,-0.1146 -0.0071,-0.2718 0.0182,-0.6704 0.0638,-0.9907 0.0626,-0.4351 0.1607,-0.9153 0.1933,-0.9433 0.0071,-0.0063 0.1041,-0.0292 0.2152,-0.0514 0.2701,-0.0535 0.3719,-0.0839 0.4413,-0.1315 0.1151,-0.0768 0.1616,-0.1998 0.1185,-0.3095 -0.0102,-0.0292 -0.0836,-0.15 -0.161,-0.2682 -0.2202,-0.3401 -0.2798,-0.4399 -0.2775,-0.4643 0.0011,-0.0133 0.0876,-0.2866 0.193,-0.6069 0.1741,-0.5289 0.4743,-1.5188 1.0012,-3.2956 0.7263,-2.4497 1.1234,-3.977 1.4205,-5.46 0.0462,-0.2316 0.1576,-0.8397 0.1553,-0.8448 -0.0011,-0.0011 -0.0045,-0.0207 -0.0076,-0.0425 z"
           style="fill:#ffffff;fill-opacity:1;fill-rule:nonzero;stroke:none"
           id="path78" />
        <path
           d="m 92.5722,68.3289 h 0.3279 c 0.2651,0 0.4813,-0.2163 0.4813,-0.4811 v -1.0499 c 0,-0.1222 -0.3716,-1.321 -0.3716,-2.363 0,-0.1324 -0.1083,-0.2404 -0.2406,-0.2404 h -3e-4 c -0.1321,0 -0.2404,0.108 -0.2404,0.2404 0,1.2053 -0.4224,2.2578 -0.4226,2.3077 l -0.0148,1.1052 c -0.0034,0.2648 0.2163,0.4811 0.4811,0.4811"
           style="fill:#ffffff;fill-opacity:1;fill-rule:evenodd;stroke:none"
           id="path80" />
        <path
           d="m 39.0801,49.4379 v -2.0486 h 1.1764 c 0.394,0 0.6854,0.0845 0.8751,0.2534 0.1896,0.1673 0.2837,0.4258 0.2837,0.7736 0,0.349 -0.0941,0.6061 -0.2837,0.7722 -0.1897,0.1664 -0.4811,0.2494 -0.8751,0.2494 z m 0,2.3018 v -1.6881 h 1.086 c 0.358,0 0.6245,0.0692 0.8008,0.2087 0.1746,0.138 0.2625,0.3503 0.2625,0.6355 0,0.2823 -0.0879,0.4935 -0.2625,0.6341 -0.1763,0.1395 -0.4428,0.2098 -0.8008,0.2098 z m -0.7364,0.6213 h 1.8768 c 0.559,0 0.989,-0.1202 1.2918,-0.3591 0.3021,-0.2407 0.4535,-0.582 0.4535,-1.0245 0,-0.3413 -0.0768,-0.6137 -0.2319,-0.8169 -0.155,-0.2021 -0.3829,-0.3288 -0.6831,-0.3787 0.3608,-0.0791 0.6398,-0.2467 0.8393,-0.4998 0.1996,-0.2534 0.2988,-0.5692 0.2988,-0.949 0,-0.4986 -0.1647,-0.8847 -0.4935,-1.1571 -0.3283,-0.2724 -0.7957,-0.4079 -1.4029,-0.4079 h -1.9488 z"
           style="fill:#ffffff;fill-opacity:1;fill-rule:nonzero;stroke:none"
           id="path82" />
        <path
           d="m 45.2602,51.6155 -0.9955,-2.7836 h 1.9944 z m -0.4141,0.7455 h 0.8319 l 2.0662,-5.593 h -0.7625 l -0.4946,1.4346 H 44.0442 L 43.5495,46.768 h -0.773 z"
           style="fill:#ffffff;fill-opacity:1;fill-rule:nonzero;stroke:none"
           id="path84" />
        <path
           d="m 51.1055,49.3894 c 0.1574,-0.0549 0.3113,-0.1726 0.4598,-0.3517 0.1488,-0.1803 0.2977,-0.4272 0.4473,-0.7416 l 0.7438,-1.5281 h -0.7871 l -0.6925,1.4346 c -0.1798,0.3747 -0.3535,0.6228 -0.5219,0.7455 -0.1675,0.1216 -0.3969,0.1828 -0.688,0.1828 H 49.2687 V 46.768 h -0.7364 v 5.593 h 1.6585 c 0.6199,0 1.082,-0.1344 1.387,-0.4014 0.305,-0.2673 0.4575,-0.6701 0.4575,-1.2098 0,-0.3529 -0.0794,-0.6443 -0.2384,-0.877 C 51.6385,49.64 51.408,49.4787 51.1055,49.3894 Z m -1.8368,2.3503 v -1.9871 h 0.9221 c 0.3532,0 0.6199,0.0842 0.8005,0.2531 0.1797,0.1687 0.2704,0.4167 0.2704,0.7441 0,0.3274 -0.0907,0.5743 -0.2704,0.7404 -0.1806,0.1664 -0.4473,0.2495 -0.8005,0.2495 z"
           style="fill:#ffffff;fill-opacity:1;fill-rule:nonzero;stroke:none"
           id="path86" />
        <path
           d="m 54.436,49.4379 v -2.0486 h 1.1763 c 0.3941,0 0.6855,0.0845 0.8751,0.2534 0.1896,0.1673 0.2837,0.4258 0.2837,0.7736 0,0.349 -0.0941,0.6061 -0.2837,0.7722 -0.1896,0.1664 -0.481,0.2494 -0.8751,0.2494 z m 0,2.3018 v -1.6881 h 1.0859 c 0.358,0 0.6245,0.0692 0.8005,0.2087 0.1749,0.138 0.2628,0.3503 0.2628,0.6355 0,0.2823 -0.0879,0.4935 -0.2628,0.6341 -0.176,0.1395 -0.4425,0.2098 -0.8005,0.2098 z m -0.7365,0.6213 h 1.8768 c 0.559,0 0.9891,-0.1202 1.2915,-0.3591 0.3025,-0.2407 0.4538,-0.582 0.4538,-1.0245 0,-0.3413 -0.0771,-0.6137 -0.2318,-0.8169 -0.1551,-0.2021 -0.3833,-0.3288 -0.6832,-0.3787 0.3609,-0.0791 0.6395,-0.2467 0.8391,-0.4998 0.1998,-0.2534 0.299,-0.5692 0.299,-0.949 0,-0.4986 -0.165,-0.8847 -0.4935,-1.1571 C 56.723,46.9035 56.2555,46.768 55.6481,46.768 h -1.9486 z"
           style="fill:#ffffff;fill-opacity:1;fill-rule:nonzero;stroke:none"
           id="path88" />
        <path
           d="m 58.801,52.361 h 3.4288 v -0.6367 h -2.6923 v -1.6574 h 2.5806 v -0.6366 h -2.5806 v -2.0257 h 2.7589 V 46.768 H 58.801 Z"
           style="fill:#ffffff;fill-opacity:1;fill-rule:nonzero;stroke:none"
           id="path90" />
        <path
           d="m 65.3148,51.6155 -0.9956,-2.7836 h 1.9945 z m -0.4142,0.7455 h 0.832 l 2.0662,-5.593 h -0.7625 l -0.4947,1.4346 H 64.0987 L 63.6041,46.768 h -0.773 z"
           style="fill:#ffffff;fill-opacity:1;fill-rule:nonzero;stroke:none"
           id="path92" />
        <path
           d="m 71.1601,49.3894 c 0.1573,-0.0549 0.3112,-0.1726 0.4598,-0.3517 0.1488,-0.1803 0.2976,-0.4272 0.4473,-0.7416 L 72.811,46.768 h -0.7872 l -0.6925,1.4346 c -0.1797,0.3747 -0.3535,0.6228 -0.5219,0.7455 -0.1672,0.1216 -0.3968,0.1828 -0.6879,0.1828 H 69.3232 V 46.768 h -0.7364 v 5.593 h 1.6586 c 0.6199,0 1.0819,-0.1344 1.3869,-0.4014 0.3051,-0.2673 0.4576,-0.6701 0.4576,-1.2098 0,-0.3529 -0.0794,-0.6443 -0.2384,-0.877 C 71.693,49.64 71.4626,49.4787 71.1601,49.3894 Z m -1.8369,2.3503 v -1.9871 h 0.9222 c 0.3532,0 0.6199,0.0842 0.8005,0.2531 0.1797,0.1687 0.2704,0.4167 0.2704,0.7441 0,0.3274 -0.0907,0.5743 -0.2704,0.7404 -0.1806,0.1664 -0.4473,0.2495 -0.8005,0.2495 z"
           style="fill:#ffffff;fill-opacity:1;fill-rule:nonzero;stroke:none"
           id="path94" />
        <path
           d="m 73.7541,52.361 h 0.7364 v -5.593 h -0.7364 z"
           style="fill:#ffffff;fill-opacity:1;fill-rule:nonzero;stroke:none"
           id="path96" />
        <path
           d="m 77.7628,51.6155 -0.9955,-2.7836 h 1.9942 z m -0.4141,0.7455 h 0.8317 l 2.0662,-5.593 H 79.484 l -0.4943,1.4346 H 76.5465 L 76.0521,46.768 h -0.7733 z"
           style="fill:#ffffff;fill-opacity:1;fill-rule:nonzero;stroke:none"
           id="path98" />
        <path
           d="M 110.9452,51.0015 V 70.95 H 7.645 V 51.0015 H 28.6591 V 50.3028 H 7.037 V 71.6491 H 111.5532 V 50.3028 H 90.6627 v 0.6987 z"
           style="fill:#ffffff;fill-opacity:1;fill-rule:evenodd;stroke:none"
           id="path100" />
        <path
           d="m 32.1165,50.1148 c -0.8532,0.0868 -0.9036,-1.1265 -0.098,-1.2078 0.3415,-0.0343 0.68,0.1834 0.6973,0.5377 0.0184,0.3833 -0.2945,0.6392 -0.5993,0.6701 z m -2.4043,0.8955 c -0.322,0.0604 -0.2651,-0.2747 -0.1352,-0.3206 0.1822,-0.0649 0.2514,0.1573 0.1352,0.3206 z m 0.2106,0.2166 c 0.1366,-0.2257 0.034,-0.4244 0.5326,-0.5789 1.1688,-0.3628 2.1722,-0.0334 2.4775,-0.8078 0.4235,-1.0727 -1.029,-1.647 -1.635,-0.7943 -0.0661,0.0932 -0.146,0.2577 -0.1551,0.4266 -0.0147,0.2696 0.0771,0.3402 0.1018,0.5145 -0.2429,0.142 -1.1245,0.3308 -1.453,0.4104 l -3.8155,0.8924 c -0.1556,0.0337 -0.6423,0.1242 -0.7509,0.1803 0.3116,0.3532 1.8771,0.1088 2.3199,0.0555 0.7821,-0.0944 1.5939,-0.176 2.3777,-0.2987 z m 1.5199,0.917 c -0.0853,-0.3833 0.2296,-0.6605 0.5296,-0.6897 0.3401,-0.0334 0.6596,0.1984 0.7253,0.4864 0.1849,0.8065 -1.0709,1.0279 -1.2549,0.2033 z m -0.2012,-0.5596 c -0.025,0.1406 -0.095,0.2245 -0.1018,0.4275 -0.0144,0.4342 0.309,0.7707 0.6815,0.8833 1.0063,0.3038 1.5894,-0.9298 0.8487,-1.5183 -0.3076,-0.2443 -1.3655,-0.231 -2.0588,-0.4017 -0.1253,-0.0308 -0.2997,-0.1017 -0.406,-0.1091 -0.0856,0.091 -0.1425,0.1865 -0.1664,0.3671 0.3141,0.0998 0.9516,0.2055 1.2028,0.3512 z m -1.6461,-1.1412 c -0.7336,-0.1049 -1.4953,-0.3181 -2.2241,-0.4232 -0.5907,-0.0851 -1.6574,-0.3433 -2.1585,-0.0618 0.1046,0.0867 2.2331,0.6749 2.6886,0.7982 0.2271,0.0615 0.3512,3e-4 0.5726,-0.051 0.2801,-0.0652 0.8561,-0.2004 1.1214,-0.2622"
           style="fill:#ffffff;fill-opacity:1;fill-rule:evenodd;stroke:none"
           id="path102" />
        <path
           d="m 86.474,50.1148 c 0.8532,0.0868 0.9037,-1.1265 0.0981,-1.2078 -0.3416,-0.0343 -0.6801,0.1834 -0.6974,0.5377 -0.0184,0.3833 0.2946,0.6392 0.5993,0.6701 z m 2.4043,0.8955 c 0.322,0.0604 0.2651,-0.2747 0.1352,-0.3206 -0.1822,-0.0649 -0.2514,0.1573 -0.1352,0.3206 z m -0.2106,0.2166 c -0.1366,-0.2257 -0.034,-0.4244 -0.5326,-0.5789 -1.1687,-0.3628 -2.1722,-0.0334 -2.4775,-0.8078 -0.4235,-1.0727 1.029,-1.647 1.635,-0.7943 0.0661,0.0932 0.146,0.2577 0.1551,0.4266 0.0147,0.2696 -0.0771,0.3402 -0.1018,0.5145 0.243,0.142 1.1245,0.3308 1.4531,0.4104 l 3.8154,0.8924 c 0.1556,0.0337 0.6423,0.1242 0.7509,0.1803 -0.3115,0.3532 -1.8771,0.1088 -2.3199,0.0555 -0.7821,-0.0944 -1.5939,-0.176 -2.3777,-0.2987 z m -1.5199,0.917 c 0.0853,-0.3833 -0.2296,-0.6605 -0.5295,-0.6897 -0.3402,-0.0334 -0.6597,0.1984 -0.7254,0.4864 -0.1848,0.8065 1.0709,1.0279 1.2549,0.2033 z m 0.2012,-0.5596 c 0.025,0.1406 0.095,0.2245 0.1018,0.4275 0.0145,0.4342 -0.309,0.7707 -0.6814,0.8833 -1.0063,0.3038 -1.5894,-0.9298 -0.8487,-1.5183 0.3075,-0.2443 1.3654,-0.231 2.0588,-0.4017 0.1253,-0.0308 0.2996,-0.1017 0.4059,-0.1091 0.0856,0.091 0.1426,0.1865 0.1664,0.3671 -0.3141,0.0998 -0.9516,0.2055 -1.2028,0.3512 z m 1.6464,-1.1412 c 0.7333,-0.1049 1.495,-0.3181 2.2238,-0.4232 0.5907,-0.0851 1.6574,-0.3433 2.1586,-0.0618 -0.1046,0.0867 -2.2332,0.6749 -2.6887,0.7982 -0.2271,0.0615 -0.3512,3e-4 -0.5726,-0.051 -0.2801,-0.0652 -0.8561,-0.2004 -1.1211,-0.2622"
           style="fill:#ffffff;fill-opacity:1;fill-rule:evenodd;stroke:none"
           id="path104" />
      </g>
    </g>
  </g>
</svg>
